<svg xmlns="http://www.w3.org/2000/svg" width="1500" height="1116" viewBox="0 0 1500 1116" font-family="PingFang SC, Hiragino Sans GB, Helvetica Neue, sans-serif"><defs><marker id="ar" viewBox="0 0 10 10" refX="8.5" refY="5" markerWidth="6.5" markerHeight="6.5" orient="auto-start-reverse"><path d="M0,0 L10,5 L0,10 z" fill="context-stroke"/></marker></defs><rect width="1500" height="1116" fill="#fff"/><text x="26" y="34" font-size="19" font-weight="600" fill="#1B2631">gqy 模块层序 + 现存反向依赖</text><text x="26" y="54" font-size="11.5" fill="#5D6D7E">解析自 test_scripts/arch_dep_check.py 的 LAYERS 与 arch-dep-waivers.json · 44 个模块 · 18 条边 · 69 处引用 · 2026-09-26</text><rect x="14" y="78" width="1472" height="60" rx="10" fill="#F8F9F9" stroke="#D5D8DC"/><text x="26" y="105" font-size="12.5" font-weight="700" fill="#5D6D7E">L0</text><text x="26" y="120" font-size="10.5" fill="#797D7F">基础</text><rect x="172" y="93.0" width="138.79999999999998" height="30" rx="8" fill="#FFFFFF" stroke="#566573" stroke-width="1.2"/><text x="241" y="112" font-size="11.5" font-family="Menlo, monospace" fill="#1B2631" text-anchor="middle">platform_types</text><rect x="315.1090909090909" y="93.0" width="138.79999999999998" height="30" rx="8" fill="#FFFFFF" stroke="#566573" stroke-width="1.2"/><text x="385" y="112" font-size="11.5" font-family="Menlo, monospace" fill="#1B2631" text-anchor="middle">token_estimate</text><rect x="458.21818181818185" y="93.0" width="122.39999999999999" height="30" rx="8" fill="#FFFFFF" stroke="#566573" stroke-width="1.2"/><text x="519" y="112" font-size="11.5" font-family="Menlo, monospace" fill="#1B2631" text-anchor="middle">json_extract</text><rect x="584.9272727272728" y="93.0" width="81.39999999999999" height="30" rx="8" fill="#FFFFFF" stroke="#566573" stroke-width="1.2"/><text x="626" y="112" font-size="11.5" font-family="Menlo, monospace" fill="#1B2631" text-anchor="middle">logging</text><rect x="670.6363636363637" y="93.0" width="74" height="30" rx="8" fill="#FFFFFF" stroke="#566573" stroke-width="1.2"/><text x="708" y="112" font-size="11.5" font-family="Menlo, monospace" fill="#1B2631" text-anchor="middle">shell</text><rect x="748.9454545454546" y="93.0" width="74" height="30" rx="8" fill="#FFFFFF" stroke="#566573" stroke-width="1.2"/><text x="786" y="112" font-size="11.5" font-family="Menlo, monospace" fill="#1B2631" text-anchor="middle">i18n</text><rect x="827.2545454545455" y="93.0" width="74" height="30" rx="8" fill="#FFFFFF" stroke="#566573" stroke-width="1.2"/><text x="864" y="112" font-size="11.5" font-family="Menlo, monospace" fill="#1B2631" text-anchor="middle">paths</text><rect x="905.5636363636363" y="93.0" width="81.39999999999999" height="30" rx="8" fill="#FFFFFF" stroke="#566573" stroke-width="1.2"/><text x="946" y="112" font-size="11.5" font-family="Menlo, monospace" fill="#1B2631" text-anchor="middle">prompts</text><rect x="991.2727272727273" y="93.0" width="74" height="30" rx="8" fill="#FFFFFF" stroke="#566573" stroke-width="1.2"/><text x="1028" y="112" font-size="11.5" font-family="Menlo, monospace" fill="#1B2631" text-anchor="middle">notify</text><rect x="1069.581818181818" y="93.0" width="130.6" height="30" rx="8" fill="#FFFFFF" stroke="#566573" stroke-width="1.2"/><text x="1135" y="112" font-size="11.5" font-family="Menlo, monospace" fill="#1B2631" text-anchor="middle">token_counter</text><rect x="1204.490909090909" y="93.0" width="122.39999999999999" height="30" rx="8" fill="#FFFFFF" stroke="#566573" stroke-width="1.2"/><text x="1266" y="112" font-size="11.5" font-family="Menlo, monospace" fill="#1B2631" text-anchor="middle">memory_types</text><rect x="1331.2" y="93.0" width="138.79999999999998" height="30" rx="8" fill="#FFFFFF" stroke="#566573" stroke-width="1.2"/><text x="1401" y="112" font-size="11.5" font-family="Menlo, monospace" fill="#1B2631" text-anchor="middle">slash_commands</text><rect x="14" y="200" width="1472" height="60" rx="10" fill="#F8F9F9" stroke="#D5D8DC"/><text x="26" y="227" font-size="12.5" font-weight="700" fill="#5D6D7E">L1</text><text x="26" y="242" font-size="10.5" fill="#797D7F">配置</text><rect x="172" y="215.0" width="138.79999999999998" height="30" rx="8" fill="#FFFFFF" stroke="#566573" stroke-width="1.2"/><text x="241" y="234" font-size="11.5" font-family="Menlo, monospace" fill="#1B2631" text-anchor="middle">default_models</text><rect x="326.79999999999995" y="215.0" width="74" height="30" rx="8" fill="#FFFFFF" stroke="#566573" stroke-width="1.2"/><text x="364" y="234" font-size="11.5" font-family="Menlo, monospace" fill="#1B2631" text-anchor="middle">config</text><rect x="416.79999999999995" y="215.0" width="122.39999999999999" height="30" rx="8" fill="#FFFFFF" stroke="#566573" stroke-width="1.2"/><text x="478" y="234" font-size="11.5" font-family="Menlo, monospace" fill="#1B2631" text-anchor="middle">models_cache</text><rect x="14" y="322" width="1472" height="60" rx="10" fill="#F8F9F9" stroke="#D5D8DC"/><text x="26" y="349" font-size="12.5" font-weight="700" fill="#5D6D7E">L2</text><text x="26" y="364" font-size="10.5" fill="#797D7F">基础设施</text><rect x="172" y="337.0" width="74" height="30" rx="8" fill="#FFFFFF" stroke="#566573" stroke-width="1.2"/><text x="209" y="356" font-size="11.5" font-family="Menlo, monospace" fill="#1B2631" text-anchor="middle">args</text><rect x="262" y="337.0" width="74" height="30" rx="8" fill="#FFFFFF" stroke="#566573" stroke-width="1.2"/><text x="299" y="356" font-size="11.5" font-family="Menlo, monospace" fill="#1B2631" text-anchor="middle">voice</text><rect x="352" y="337.0" width="74" height="30" rx="8" fill="#FFFFFF" stroke="#566573" stroke-width="1.2"/><text x="389" y="356" font-size="11.5" font-family="Menlo, monospace" fill="#1B2631" text-anchor="middle">pm</text><rect x="442" y="337.0" width="74" height="30" rx="8" fill="#FFFFFF" stroke="#566573" stroke-width="1.2"/><text x="479" y="356" font-size="11.5" font-family="Menlo, monospace" fill="#1B2631" text-anchor="middle">alarm</text><rect x="532" y="337.0" width="74" height="30" rx="8" fill="#FFFFFF" stroke="#566573" stroke-width="1.2"/><text x="569" y="356" font-size="11.5" font-family="Menlo, monospace" fill="#1B2631" text-anchor="middle">ipc</text><rect x="622" y="337.0" width="89.6" height="30" rx="8" fill="#FFFFFF" stroke="#566573" stroke-width="1.2"/><text x="667" y="356" font-size="11.5" font-family="Menlo, monospace" fill="#1B2631" text-anchor="middle">terminal</text><rect x="727.6" y="337.0" width="74" height="30" rx="8" fill="#FDEDEC" stroke="#943126" stroke-width="1.2"/><text x="765" y="356" font-size="11.5" font-family="Menlo, monospace" fill="#1B2631" text-anchor="middle">llm</text><rect x="817.6" y="337.0" width="74" height="30" rx="8" fill="#FFFFFF" stroke="#566573" stroke-width="1.2"/><text x="855" y="356" font-size="11.5" font-family="Menlo, monospace" fill="#1B2631" text-anchor="middle">state</text><rect x="907.6" y="337.0" width="97.8" height="30" rx="8" fill="#FFFFFF" stroke="#566573" stroke-width="1.2"/><text x="956" y="356" font-size="11.5" font-family="Menlo, monospace" fill="#1B2631" text-anchor="middle">embedding</text><rect x="1021.4" y="337.0" width="89.6" height="30" rx="8" fill="#FFFFFF" stroke="#566573" stroke-width="1.2"/><text x="1066" y="356" font-size="11.5" font-family="Menlo, monospace" fill="#1B2631" text-anchor="middle">question</text><rect x="1127.0" y="337.0" width="74" height="30" rx="8" fill="#FFFFFF" stroke="#566573" stroke-width="1.2"/><text x="1164" y="356" font-size="11.5" font-family="Menlo, monospace" fill="#1B2631" text-anchor="middle">skills</text><rect x="1217.0" y="337.0" width="89.6" height="30" rx="8" fill="#FFFFFF" stroke="#566573" stroke-width="1.2"/><text x="1262" y="356" font-size="11.5" font-family="Menlo, monospace" fill="#1B2631" text-anchor="middle">transfer</text><rect x="1322.6" y="337.0" width="122.39999999999999" height="30" rx="8" fill="#FFFFFF" stroke="#566573" stroke-width="1.2"/><text x="1384" y="356" font-size="11.5" font-family="Menlo, monospace" fill="#1B2631" text-anchor="middle">persona_hint</text><rect x="14" y="444" width="1472" height="60" rx="10" fill="#F8F9F9" stroke="#D5D8DC"/><text x="26" y="471" font-size="12.5" font-weight="700" fill="#5D6D7E">L3</text><text x="26" y="486" font-size="10.5" fill="#797D7F">能力</text><rect x="172" y="459.0" width="106.0" height="30" rx="8" fill="#FFFFFF" stroke="#566573" stroke-width="1.2"/><text x="225" y="478" font-size="11.5" font-family="Menlo, monospace" fill="#1B2631" text-anchor="middle">default_kb</text><rect x="294.0" y="459.0" width="97.8" height="30" rx="8" fill="#FFFFFF" stroke="#566573" stroke-width="1.2"/><text x="343" y="478" font-size="11.5" font-family="Menlo, monospace" fill="#1B2631" text-anchor="middle">clipboard</text><rect x="407.8" y="459.0" width="74" height="30" rx="8" fill="#FFFFFF" stroke="#566573" stroke-width="1.2"/><text x="445" y="478" font-size="11.5" font-family="Menlo, monospace" fill="#1B2631" text-anchor="middle">memory</text><rect x="497.8" y="459.0" width="74" height="30" rx="8" fill="#FDEDEC" stroke="#943126" stroke-width="1.2"/><text x="535" y="478" font-size="11.5" font-family="Menlo, monospace" fill="#1B2631" text-anchor="middle">tools</text><rect x="587.8" y="459.0" width="74" height="30" rx="8" fill="#FFFFFF" stroke="#566573" stroke-width="1.2"/><text x="625" y="478" font-size="11.5" font-family="Menlo, monospace" fill="#1B2631" text-anchor="middle">render</text><rect x="677.8" y="459.0" width="74" height="30" rx="8" fill="#FFFFFF" stroke="#566573" stroke-width="1.2"/><text x="715" y="478" font-size="11.5" font-family="Menlo, monospace" fill="#1B2631" text-anchor="middle">ledger</text><rect x="767.8" y="459.0" width="97.8" height="30" rx="8" fill="#FFFFFF" stroke="#566573" stroke-width="1.2"/><text x="817" y="478" font-size="11.5" font-family="Menlo, monospace" fill="#1B2631" text-anchor="middle">host_info</text><rect x="14" y="566" width="1472" height="60" rx="10" fill="#F8F9F9" stroke="#D5D8DC"/><text x="26" y="593" font-size="12.5" font-weight="700" fill="#5D6D7E">L4</text><text x="26" y="608" font-size="10.5" fill="#797D7F">回合引擎</text><rect x="172" y="581.0" width="74" height="30" rx="8" fill="#FDEDEC" stroke="#943126" stroke-width="1.2"/><text x="209" y="600" font-size="11.5" font-family="Menlo, monospace" fill="#1B2631" text-anchor="middle">agent</text><rect x="262" y="581.0" width="81.39999999999999" height="30" rx="8" fill="#FFFFFF" stroke="#566573" stroke-width="1.2"/><text x="303" y="600" font-size="11.5" font-family="Menlo, monospace" fill="#1B2631" text-anchor="middle">runtime</text><rect x="14" y="688" width="1472" height="60" rx="10" fill="#F8F9F9" stroke="#D5D8DC"/><text x="26" y="715" font-size="12.5" font-weight="700" fill="#5D6D7E">L5</text><text x="26" y="730" font-size="10.5" fill="#797D7F">场所</text><rect x="172" y="703.0" width="97.8" height="30" rx="8" fill="#FDEDEC" stroke="#943126" stroke-width="1.2"/><text x="221" y="722" font-size="11.5" font-family="Menlo, monospace" fill="#1B2631" text-anchor="middle">platforms</text><rect x="14" y="810" width="1472" height="60" rx="10" fill="#F8F9F9" stroke="#D5D8DC"/><text x="26" y="837" font-size="12.5" font-weight="700" fill="#5D6D7E">L6</text><text x="26" y="852" font-size="10.5" fill="#797D7F">daemon</text><rect x="172" y="825.0" width="74" height="30" rx="8" fill="#FDEDEC" stroke="#943126" stroke-width="1.2"/><text x="209" y="844" font-size="11.5" font-family="Menlo, monospace" fill="#1B2631" text-anchor="middle">web</text><rect x="14" y="932" width="1472" height="60" rx="10" fill="#F8F9F9" stroke="#D5D8DC"/><text x="26" y="959" font-size="12.5" font-weight="700" fill="#5D6D7E">L7</text><text x="26" y="974" font-size="10.5" fill="#797D7F">入口</text><rect x="172" y="947.0" width="74" height="30" rx="8" fill="#FFFFFF" stroke="#566573" stroke-width="1.2"/><text x="209" y="966" font-size="11.5" font-family="Menlo, monospace" fill="#1B2631" text-anchor="middle">daemon</text><rect x="262" y="947.0" width="122.39999999999999" height="30" rx="8" fill="#FFFFFF" stroke="#566573" stroke-width="1.2"/><text x="323" y="966" font-size="11.5" font-family="Menlo, monospace" fill="#1B2631" text-anchor="middle">question_tui</text><rect x="400.4" y="947.0" width="74" height="30" rx="8" fill="#FDEDEC" stroke="#943126" stroke-width="1.2"/><text x="437" y="966" font-size="11.5" font-family="Menlo, monospace" fill="#1B2631" text-anchor="middle">cli</text><rect x="490.4" y="947.0" width="106.0" height="30" rx="8" fill="#FFFFFF" stroke="#566573" stroke-width="1.2"/><text x="543" y="966" font-size="11.5" font-family="Menlo, monospace" fill="#1B2631" text-anchor="middle">config_tui</text><rect x="612.4" y="947.0" width="74" height="30" rx="8" fill="#FFFFFF" stroke="#566573" stroke-width="1.2"/><text x="649" y="966" font-size="11.5" font-family="Menlo, monospace" fill="#1B2631" text-anchor="middle">oobe</text><path d="M748,367 C748,413 518,413 518,459" fill="none" stroke="#C0392B" stroke-width="3.45" stroke-opacity="0.8" marker-end="url(#ar)"/><text x="518" y="454" font-size="10" fill="#922B21" text-anchor="middle" stroke="#fff" stroke-width="3.6" paint-order="stroke">15</text><path d="M518,489 C518,535 192,535 192,581" fill="none" stroke="#C0392B" stroke-width="2.43" stroke-opacity="0.8" marker-end="url(#ar)"/><text x="192" y="576" font-size="10" fill="#922B21" text-anchor="middle" stroke="#fff" stroke-width="3.6" paint-order="stroke">9</text><path d="M192,611 C192,657 204,657 204,703" fill="none" stroke="#C0392B" stroke-width="2.2600000000000002" stroke-opacity="0.8" marker-end="url(#ar)"/><text x="204" y="698" font-size="10" fill="#922B21" text-anchor="middle" stroke="#fff" stroke-width="3.6" paint-order="stroke">8</text><path d="M529,489 C529,596 215,596 215,703" fill="none" stroke="#C0392B" stroke-width="1.75" stroke-opacity="0.8" marker-end="url(#ar)"/><text x="215" y="698" font-size="10" fill="#922B21" text-anchor="middle" stroke="#fff" stroke-width="3.6" paint-order="stroke">5</text><path d="M540,489 C540,657 214,657 214,825" fill="none" stroke="#C0392B" stroke-width="1.75" stroke-opacity="0.8" marker-end="url(#ar)"/><text x="214" y="820" font-size="10" fill="#922B21" text-anchor="middle" stroke="#fff" stroke-width="3.6" paint-order="stroke">5</text><path d="M204,733 C204,779 192,779 192,825" fill="none" stroke="#C0392B" stroke-width="1.58" stroke-opacity="0.8" marker-end="url(#ar)"/><text x="192" y="820" font-size="10" fill="#922B21" text-anchor="middle" stroke="#fff" stroke-width="3.6" paint-order="stroke">4</text><path d="M286,611 C286,657 204,657 204,703" fill="none" stroke="#C0392B" stroke-width="1.58" stroke-opacity="0.8" marker-end="url(#ar)"/><text x="204" y="698" font-size="10" fill="#922B21" text-anchor="middle" stroke="#fff" stroke-width="3.6" paint-order="stroke">4</text><path d="M192,855 C192,901 421,901 421,947" fill="none" stroke="#C0392B" stroke-width="1.58" stroke-opacity="0.8" marker-end="url(#ar)"/><text x="421" y="942" font-size="10" fill="#922B21" text-anchor="middle" stroke="#fff" stroke-width="3.6" paint-order="stroke">4</text><path d="M347,245 C347,291 838,291 838,337" fill="none" stroke="#C0392B" stroke-width="1.24" stroke-opacity="0.8" marker-end="url(#ar)"/><text x="838" y="332" font-size="10" fill="#922B21" text-anchor="middle" stroke="#fff" stroke-width="3.6" paint-order="stroke">2</text><path d="M461,245 C461,413 286,413 286,581" fill="none" stroke="#C0392B" stroke-width="1.24" stroke-opacity="0.8" marker-end="url(#ar)"/><text x="286" y="576" font-size="10" fill="#922B21" text-anchor="middle" stroke="#fff" stroke-width="3.6" paint-order="stroke">2</text><path d="M608,489 C608,718 421,718 421,947" fill="none" stroke="#C0392B" stroke-width="1.24" stroke-opacity="0.8" marker-end="url(#ar)"/><text x="421" y="942" font-size="10" fill="#922B21" text-anchor="middle" stroke="#fff" stroke-width="3.6" paint-order="stroke">2</text><path d="M551,489 C551,718 454,718 454,947" fill="none" stroke="#C0392B" stroke-width="1.24" stroke-opacity="0.8" marker-end="url(#ar)"/><text x="454" y="942" font-size="10" fill="#922B21" text-anchor="middle" stroke="#fff" stroke-width="3.6" paint-order="stroke">2</text><path d="M204,855 C204,901 538,901 538,947" fill="none" stroke="#C0392B" stroke-width="1.24" stroke-opacity="0.8" marker-end="url(#ar)"/><text x="538" y="942" font-size="10" fill="#922B21" text-anchor="middle" stroke="#fff" stroke-width="3.6" paint-order="stroke">2</text><path d="M759,367 C759,535 215,535 215,703" fill="none" stroke="#C0392B" stroke-width="1.07" stroke-opacity="0.8" marker-end="url(#ar)"/><text x="215" y="698" font-size="10" fill="#922B21" text-anchor="middle" stroke="#fff" stroke-width="3.6" paint-order="stroke">1</text><path d="M770,367 C770,413 630,413 630,459" fill="none" stroke="#C0392B" stroke-width="1.07" stroke-opacity="0.8" marker-end="url(#ar)"/><text x="630" y="454" font-size="10" fill="#922B21" text-anchor="middle" stroke="#fff" stroke-width="3.6" paint-order="stroke">1</text><path d="M838,367 C838,413 518,413 518,459" fill="none" stroke="#C0392B" stroke-width="1.07" stroke-opacity="0.8" marker-end="url(#ar)"/><text x="518" y="454" font-size="10" fill="#922B21" text-anchor="middle" stroke="#fff" stroke-width="3.6" paint-order="stroke">1</text><path d="M650,367 C650,657 421,657 421,947" fill="none" stroke="#C0392B" stroke-width="1.07" stroke-opacity="0.8" marker-end="url(#ar)"/><text x="421" y="942" font-size="10" fill="#922B21" text-anchor="middle" stroke="#fff" stroke-width="3.6" paint-order="stroke">1</text><path d="M518,489 C518,535 286,535 286,581" fill="none" stroke="#C0392B" stroke-width="1.07" stroke-opacity="0.8" marker-end="url(#ar)"/><text x="286" y="576" font-size="10" fill="#922B21" text-anchor="middle" stroke="#fff" stroke-width="3.6" paint-order="stroke">1</text><text x="26" y="1078" font-size="11" fill="#922B21">红边 = 门禁白名单放行的反向依赖（低层 → 高层）。数字 = 该边的代码引用处数，线越粗越多；淡红底的模块是引用数 ≥8 的热点。</text><text x="26" y="1097" font-size="11" fill="#5D6D7E">刻意不画约 190 条合规下行边，否则不可读。逐条边的文件与行号见 gqy.evidence.md。</text></svg>